<svg width="28" height="28" viewBox="0 0 28 28" fill="none" xmlns="http://www.w3.org/2000/svg">
<g clip-path="url(#clip0_94_2)">
<path d="M26.6361 10.7006L22.1106 6.17514C21.6471 5.72752 20.9085 5.74037 20.4609 6.20385C20.0242 6.65595 20.0242 7.37274 20.4609 7.82484L24.9864 12.3503C25.1209 12.4874 25.2384 12.6402 25.3364 12.8053C25.3189 12.8053 25.3049 12.796 25.2874 12.796L6.9894 12.8333C6.34507 12.8333 5.82275 13.3557 5.82275 14C5.82275 14.6443 6.34507 15.1666 6.9894 15.1666L25.2804 15.1293C25.3131 15.1293 25.3399 15.1129 25.3714 15.1106C25.2679 15.308 25.1367 15.4895 24.9818 15.6496L20.4563 20.1751C19.9928 20.6228 19.9799 21.3613 20.4275 21.8248C20.8752 22.2883 21.6137 22.3011 22.0772 21.8535C22.0869 21.8441 22.0965 21.8345 22.1059 21.8248L26.6314 17.2993C28.4532 15.4769 28.4532 12.5229 26.6314 10.7006H26.6361Z" fill="#FCBF29"/>
<path d="M8.16909 25.6666H5.83574C3.90275 25.6666 2.33574 24.0996 2.33574 22.1666V5.83335C2.33574 3.90037 3.90275 2.33335 5.83574 2.33335H8.16909C8.81342 2.33335 9.33574 1.81103 9.33574 1.1667C9.33574 0.522375 8.81347 0 8.16909 0H5.83574C2.61574 0.00388281 0.00632422 2.6133 0.00244141 5.83335V22.1667C0.00632422 25.3867 2.61574 27.9962 5.83579 28H8.16914C8.81347 28 9.33579 27.4777 9.33579 26.8334C9.33579 26.189 8.81347 25.6666 8.16909 25.6666Z" fill="#FCBF29"/>
</g>
<defs>
<clipPath id="clip0_94_2">
<rect width="28" height="28" fill="white"/>
</clipPath>
</defs>
</svg>
