<svg width="27" height="26" viewBox="0 0 27 26" fill="none" xmlns="http://www.w3.org/2000/svg">
<path d="M18.0391 11.1087H14.8459V7.93478C14.8459 7.51389 14.6777 7.11024 14.3783 6.81263C14.0789 6.51502 13.6728 6.34782 13.2493 6.34782C12.8259 6.34782 12.4198 6.51502 12.1204 6.81263C11.821 7.11024 11.6528 7.51389 11.6528 7.93478V11.1087H8.45961C8.03617 11.1087 7.63008 11.2759 7.33066 11.5735C7.03125 11.8711 6.86304 12.2748 6.86304 12.6957C6.86304 13.1165 7.03125 13.5202 7.33066 13.8178C7.63008 14.1154 8.03617 14.2826 8.45961 14.2826H11.6528V17.4565C11.6528 17.8774 11.821 18.2811 12.1204 18.5787C12.4198 18.8763 12.8259 19.0435 13.2493 19.0435C13.6728 19.0435 14.0789 18.8763 14.3783 18.5787C14.6777 18.2811 14.8459 17.8774 14.8459 17.4565V14.2826H18.0391C18.4625 14.2826 18.8686 14.1154 19.168 13.8178C19.4674 13.5202 19.6356 13.1165 19.6356 12.6957C19.6356 12.2748 19.4674 11.8711 19.168 11.5735C18.8686 11.2759 18.4625 11.1087 18.0391 11.1087Z" fill="#FCBF29"/>
</svg>
